<svg width="25" height="25" viewBox="0 0 25 25" fill="none" xmlns="http://www.w3.org/2000/svg">
<g id="Icon/Outline/Instagram">
<path id="Vector" d="M12.5449 9.20907C11.7455 9.20907 10.9789 9.52639 10.4136 10.0912C9.84838 10.656 9.53083 11.4221 9.53083 12.2209C9.53083 13.0197 9.84838 13.7858 10.4136 14.3506C10.9789 14.9154 11.7455 15.2327 12.5449 15.2327C13.3443 15.2327 14.1109 14.9154 14.6761 14.3506C15.2414 13.7858 15.5589 13.0197 15.5589 12.2209C15.5589 11.4221 15.2414 10.656 14.6761 10.0912C14.1109 9.52639 13.3443 9.20907 12.5449 9.20907ZM12.5449 7.20118C13.8772 7.20118 15.1549 7.73004 16.097 8.67142C17.0391 9.61281 17.5683 10.8896 17.5683 12.2209C17.5683 13.5522 17.0391 14.829 16.097 15.7704C15.1549 16.7118 13.8772 17.2406 12.5449 17.2406C11.2126 17.2406 9.93487 16.7118 8.99279 15.7704C8.05072 14.829 7.52147 13.5522 7.52147 12.2209C7.52147 10.8896 8.05072 9.61281 8.99279 8.67142C9.93487 7.73004 11.2126 7.20118 12.5449 7.20118ZM19.0753 6.9502C19.0753 7.28302 18.943 7.60222 18.7075 7.83757C18.472 8.07291 18.1525 8.20513 17.8195 8.20513C17.4864 8.20513 17.167 8.07291 16.9315 7.83757C16.6959 7.60222 16.5636 7.28302 16.5636 6.9502C16.5636 6.61737 16.6959 6.29817 16.9315 6.06282C17.167 5.82748 17.4864 5.69526 17.8195 5.69526C18.1525 5.69526 18.472 5.82748 18.7075 6.06282C18.943 6.29817 19.0753 6.61737 19.0753 6.9502ZM12.5449 4.18935C10.0593 4.18935 9.65341 4.19637 8.49701 4.24758C7.70934 4.28472 7.18088 4.39014 6.69059 4.58089C6.25456 4.74955 5.94009 4.95134 5.60553 5.28666C5.29107 5.59025 5.04929 5.96089 4.89824 6.37092C4.70735 6.86285 4.60186 7.38992 4.56569 8.17601C4.51344 9.28437 4.50741 9.67189 4.50741 12.2209C4.50741 14.7047 4.51445 15.1103 4.56569 16.2658C4.60286 17.0519 4.70835 17.581 4.89824 18.0699C5.06903 18.5066 5.26997 18.8208 5.60352 19.1541C5.9421 19.4915 6.25657 19.6933 6.68858 19.8599C7.1849 20.0517 7.71336 20.1581 8.49701 20.1942C9.60619 20.2464 9.99399 20.2525 12.5449 20.2525C15.0305 20.2525 15.4364 20.2454 16.5928 20.1942C17.3784 20.1571 17.9079 20.0517 18.3982 19.8619C18.8332 19.6923 19.1497 19.4905 19.4832 19.1572C19.8218 18.8188 20.0238 18.5046 20.1905 18.0729C20.3814 17.578 20.4879 17.0489 20.5241 16.2658C20.5763 15.1574 20.5824 14.7699 20.5824 12.2209C20.5824 9.73715 20.5753 9.33155 20.5241 8.17601C20.4869 7.39093 20.3814 6.86084 20.1905 6.37092C20.0391 5.96131 19.7978 5.59081 19.4842 5.28666C19.1806 4.97227 18.8096 4.73064 18.3992 4.57988C17.9069 4.38913 17.3784 4.28372 16.5928 4.24758C15.4836 4.19537 15.0958 4.18935 12.5449 4.18935ZM12.5449 2.18146C15.2746 2.18146 15.6152 2.1915 16.6862 2.24169C17.7562 2.29189 18.4846 2.45955 19.1256 2.70853C19.7887 2.96353 20.3473 3.30889 20.9059 3.86608C21.4167 4.36794 21.812 4.97502 22.0643 5.64507C22.3124 6.28458 22.4812 7.01344 22.5314 8.08264C22.5787 9.15285 22.5917 9.49319 22.5917 12.2209C22.5917 14.9486 22.5817 15.289 22.5314 16.3592C22.4812 17.4284 22.3124 18.1562 22.0643 18.7967C21.8128 19.4672 21.4174 20.0744 20.9059 20.5757C20.4035 21.0861 19.796 21.481 19.1256 21.7333C18.4856 21.9813 17.7562 22.1499 16.6862 22.2001C15.6152 22.2473 15.2746 22.2604 12.5449 22.2604C9.81516 22.2604 9.47457 22.2503 8.40358 22.2001C7.33359 22.1499 6.60519 21.9813 5.96421 21.7333C5.2934 21.4818 4.68577 21.0867 4.18391 20.5757C3.67293 20.0739 3.27761 19.4668 3.02551 18.7967C2.77634 18.1572 2.60856 17.4284 2.55833 16.3592C2.51111 15.289 2.49805 14.9486 2.49805 12.2209C2.49805 9.49319 2.50809 9.15285 2.55833 8.08264C2.60856 7.01244 2.77634 6.28558 3.02551 5.64507C3.27691 4.97461 3.67233 4.36737 4.18391 3.86608C4.68592 3.3553 5.29351 2.96025 5.96421 2.70853C6.60519 2.45955 7.33259 2.29189 8.40358 2.24169C9.47457 2.19451 9.81516 2.18146 12.5449 2.18146Z" fill="white"/>
</g>
</svg>
